<mxfile host="65bd71144e">
    <diagram id="nWXRt7LKUX-1-Ko7EOjv" name="Page-1">
        <mxGraphModel dx="645" dy="353" grid="1" gridSize="10" guides="1" tooltips="1" connect="1" arrows="1" fold="1" page="1" pageScale="1" pageWidth="827" pageHeight="1169" math="0" shadow="0">
            <root>
                <mxCell id="0"/>
                <mxCell id="1" parent="0"/>
                <mxCell id="UyfyExOqAVV3lKFY3JEy-2" value="" style="ellipse;whiteSpace=wrap;html=1;" parent="1" vertex="1">
                    <mxGeometry x="120" y="80" width="260" height="250" as="geometry"/>
                </mxCell>
                <mxCell id="UyfyExOqAVV3lKFY3JEy-3" value="" style="ellipse;shape=cloud;whiteSpace=wrap;html=1;" parent="1" vertex="1">
                    <mxGeometry x="220" y="205" width="50" height="50" as="geometry"/>
                </mxCell>
                <mxCell id="UyfyExOqAVV3lKFY3JEy-4" value="" style="ellipse;shape=cloud;whiteSpace=wrap;html=1;" parent="1" vertex="1">
                    <mxGeometry x="270" y="195" width="50" height="50" as="geometry"/>
                </mxCell>
                <mxCell id="UyfyExOqAVV3lKFY3JEy-5" value="" style="ellipse;shape=cloud;whiteSpace=wrap;html=1;" parent="1" vertex="1">
                    <mxGeometry x="280" y="155" width="50" height="50" as="geometry"/>
                </mxCell>
                <mxCell id="UyfyExOqAVV3lKFY3JEy-6" value="" style="ellipse;shape=cloud;whiteSpace=wrap;html=1;" parent="1" vertex="1">
                    <mxGeometry x="220" y="155" width="50" height="50" as="geometry"/>
                </mxCell>
                <mxCell id="UyfyExOqAVV3lKFY3JEy-15" value="Toppings&lt;br&gt;" style="text;html=1;align=center;verticalAlign=middle;resizable=0;points=[];autosize=1;strokeColor=none;fillColor=none;" parent="1" vertex="1">
                    <mxGeometry x="170" y="155" width="60" height="20" as="geometry"/>
                </mxCell>
                <mxCell id="UyfyExOqAVV3lKFY3JEy-16" value="Cheese" style="text;html=1;align=center;verticalAlign=middle;resizable=0;points=[];autosize=1;strokeColor=none;fillColor=none;" parent="1" vertex="1">
                    <mxGeometry x="240" y="195" width="60" height="20" as="geometry"/>
                </mxCell>
                <mxCell id="UyfyExOqAVV3lKFY3JEy-17" value="CrustType&lt;br&gt;Thin | Thick | Regular&amp;nbsp;" style="text;html=1;strokeColor=none;fillColor=none;align=left;verticalAlign=middle;whiteSpace=wrap;rounded=0;" parent="1" vertex="1">
                    <mxGeometry x="340" y="90" width="120" height="30" as="geometry"/>
                </mxCell>
                <mxCell id="UyfyExOqAVV3lKFY3JEy-18" value="CrustSize&lt;br&gt;Small | Medium| Large" style="text;html=1;align=left;verticalAlign=middle;resizable=0;points=[];autosize=1;strokeColor=none;fillColor=none;" parent="1" vertex="1">
                    <mxGeometry x="400" y="180" width="140" height="30" as="geometry"/>
                </mxCell>
                <mxCell id="UyfyExOqAVV3lKFY3JEy-19" value="&lt;div style=&quot;color: rgb(167 , 219 , 247) ; background-color: rgb(1 , 22 , 39) ; font-family: &amp;#34;jetbrains mono&amp;#34; , &amp;#34;droid sans mono&amp;#34; , monospace , monospace , &amp;#34;droid sans fallback&amp;#34; ; font-size: 16px ; line-height: 22px&quot;&gt;&lt;div&gt;&lt;span style=&quot;color: #00bff9&quot;&gt;data&lt;/span&gt; &lt;span style=&quot;color: #00bff9&quot;&gt;BaseProduct&lt;/span&gt; &lt;span style=&quot;color: #00bff9&quot;&gt;=&lt;/span&gt; &lt;span style=&quot;color: #82aaff&quot;&gt;Pizza&lt;/span&gt; {&amp;nbsp;&lt;/div&gt;&lt;div&gt;&lt;span style=&quot;color: #a4ceee&quot;&gt;&amp;nbsp; crustSize&lt;/span&gt; &lt;span style=&quot;color: #00bff9&quot;&gt;::&lt;/span&gt; &lt;span style=&quot;color: #00bff9&quot;&gt;CrustSize&lt;/span&gt;&lt;/div&gt;&lt;div&gt;                   , &lt;span style=&quot;color: #a4ceee&quot;&gt;crustType&lt;/span&gt; &lt;span style=&quot;color: #00bff9&quot;&gt;::&lt;/span&gt; &lt;span style=&quot;color: #00bff9&quot;&gt;CrustType&lt;/span&gt;&lt;/div&gt;&lt;div&gt;                   , &lt;span style=&quot;color: #a4ceee&quot;&gt;toppings&lt;/span&gt;  &lt;span style=&quot;color: #00bff9&quot;&gt;::&lt;/span&gt; [&lt;span style=&quot;color: #00bff9&quot;&gt;Topping&lt;/span&gt;]&lt;/div&gt;&lt;div&gt;                   }&lt;/div&gt;&lt;/div&gt;" style="text;html=1;align=left;verticalAlign=middle;resizable=0;points=[];autosize=1;strokeColor=none;fillColor=none;" parent="1" vertex="1">
                    <mxGeometry x="540" y="40" width="270" height="110" as="geometry"/>
                </mxCell>
                <mxCell id="UyfyExOqAVV3lKFY3JEy-20" value="Actor" style="shape=umlActor;verticalLabelPosition=bottom;verticalAlign=top;html=1;outlineConnect=0;" parent="1" vertex="1">
                    <mxGeometry x="100" y="480" width="30" height="60" as="geometry"/>
                </mxCell>
                <mxCell id="2" value="&lt;div style=&quot;color: rgb(167 , 219 , 247) ; background-color: rgb(1 , 22 , 39) ; font-family: &amp;#34;jetbrains mono&amp;#34; , &amp;#34;droid sans mono&amp;#34; , monospace , monospace , &amp;#34;droid sans fallback&amp;#34; ; font-size: 16px ; line-height: 22px&quot;&gt;&lt;div&gt;&lt;span style=&quot;color: #00bff9&quot;&gt;data&lt;/span&gt; &lt;span style=&quot;color: #00bff9&quot;&gt;Order&lt;/span&gt; &lt;span style=&quot;color: #00bff9&quot;&gt;=&lt;/span&gt; &lt;span style=&quot;color: #82aaff&quot;&gt;Order&lt;/span&gt;&lt;/div&gt;&lt;div&gt;&amp;nbsp;{&amp;nbsp;&amp;nbsp;&lt;span style=&quot;color: #a4ceee&quot;&gt;customer&lt;/span&gt; &lt;span style=&quot;color: #00bff9&quot;&gt;::&lt;/span&gt; &lt;span style=&quot;color: #00bff9&quot;&gt;Customer&lt;/span&gt;,&lt;/div&gt;&lt;div&gt;    &lt;span style=&quot;color: #a4ceee&quot;&gt;&amp;nbsp; &amp;nbsp; pizzas&lt;/span&gt; &lt;span style=&quot;color: #00bff9&quot;&gt;::&lt;/span&gt; [&lt;span style=&quot;color: #00bff9&quot;&gt;BaseProduct&lt;/span&gt;]&lt;/div&gt;&lt;div&gt;&amp;nbsp;}&lt;/div&gt;&lt;div&gt;  &lt;span style=&quot;color: #00bff9&quot;&gt;deriving&lt;/span&gt; (&lt;span style=&quot;color: #00bff9&quot;&gt;Show&lt;/span&gt;)&lt;/div&gt;&lt;/div&gt;" style="text;html=1;align=left;verticalAlign=middle;resizable=0;points=[];autosize=1;strokeColor=none;" parent="1" vertex="1">
                    <mxGeometry x="160" y="470" width="270" height="110" as="geometry"/>
                </mxCell>
                <mxCell id="4" style="edgeStyle=none;html=1;" parent="1" edge="1">
                    <mxGeometry relative="1" as="geometry">
                        <mxPoint x="390" y="870" as="targetPoint"/>
                        <mxPoint x="300" y="870" as="sourcePoint"/>
                    </mxGeometry>
                </mxCell>
                <mxCell id="6" style="edgeStyle=none;html=1;exitX=0;exitY=0.5;exitDx=0;exitDy=0;" parent="1" edge="1">
                    <mxGeometry relative="1" as="geometry">
                        <mxPoint x="170" y="870" as="targetPoint"/>
                        <mxPoint x="220" y="870" as="sourcePoint"/>
                    </mxGeometry>
                </mxCell>
                <mxCell id="7" value="Quit" style="text;html=1;align=center;verticalAlign=middle;resizable=0;points=[];autosize=1;strokeColor=none;" parent="1" vertex="1">
                    <mxGeometry x="130" y="860" width="40" height="20" as="geometry"/>
                </mxCell>
                <mxCell id="8" value="&lt;div style=&quot;background-color: rgb(1 , 22 , 39) ; line-height: 22px&quot;&gt;&lt;br&gt;&lt;div style=&quot;color: rgb(167 , 219 , 247) ; font-family: &amp;quot;jetbrains mono&amp;quot; , &amp;quot;droid sans mono&amp;quot; , monospace , monospace , &amp;quot;droid sans fallback&amp;quot; ; font-size: 16px&quot;&gt;&lt;span style=&quot;color: #87aff4&quot;&gt;createEmptyOrder&lt;/span&gt; &lt;span style=&quot;color: #00bff9&quot;&gt;::&lt;/span&gt; &lt;span style=&quot;color: #00bff9&quot;&gt;Order&lt;/span&gt;&lt;/div&gt;&lt;div style=&quot;color: rgb(167 , 219 , 247) ; font-family: &amp;quot;jetbrains mono&amp;quot; , &amp;quot;droid sans mono&amp;quot; , monospace , monospace , &amp;quot;droid sans fallback&amp;quot; ; font-size: 16px&quot;&gt;createEmptyOrder &lt;span style=&quot;color: #00bff9&quot;&gt;=&lt;/span&gt; &lt;span style=&quot;color: #82aaff&quot;&gt;Order&lt;/span&gt; {&lt;span style=&quot;color: #a4ceee&quot;&gt;customer&lt;/span&gt; &lt;span style=&quot;color: #00bff9&quot;&gt;=&lt;/span&gt; (&lt;span style=&quot;color: #82aaff&quot;&gt;Customer&lt;/span&gt; &lt;span style=&quot;color: #6bff81&quot;&gt;&quot;&lt;/span&gt;&lt;span style=&quot;color: #d3eed6&quot;&gt;no name&lt;/span&gt;&lt;span style=&quot;color: #6bff81&quot;&gt;&quot;&lt;/span&gt;), &lt;span style=&quot;color: #a4ceee&quot;&gt;pizzas&lt;/span&gt; &lt;span style=&quot;color: #00bff9&quot;&gt;=&lt;/span&gt; &lt;span style=&quot;color: #92b6f4&quot;&gt;[]&lt;/span&gt;}&lt;/div&gt;&lt;div style=&quot;&quot;&gt;&lt;font color=&quot;#a7dbf7&quot; face=&quot;JetBrains Mono, Droid Sans Mono, monospace, monospace, Droid Sans Fallback&quot;&gt;&lt;span style=&quot;font-size: 16px&quot;&gt;&lt;br&gt;&lt;/span&gt;&lt;/font&gt;&lt;/div&gt;&lt;/div&gt;" style="text;html=1;align=left;verticalAlign=middle;resizable=0;points=[];autosize=1;strokeColor=none;" parent="1" vertex="1">
                    <mxGeometry x="640" y="585" width="700" height="90" as="geometry"/>
                </mxCell>
                <mxCell id="10" value="New Order" style="rhombus;whiteSpace=wrap;html=1;" vertex="1" parent="1">
                    <mxGeometry x="220" y="830" width="80" height="80" as="geometry"/>
                </mxCell>
                <mxCell id="11" value="q" style="text;html=1;align=center;verticalAlign=middle;resizable=0;points=[];autosize=1;strokeColor=none;" vertex="1" parent="1">
                    <mxGeometry x="190" y="850" width="20" height="20" as="geometry"/>
                </mxCell>
                <mxCell id="12" value="1" style="text;html=1;align=center;verticalAlign=middle;resizable=0;points=[];autosize=1;strokeColor=none;" vertex="1" parent="1">
                    <mxGeometry x="330" y="850" width="20" height="20" as="geometry"/>
                </mxCell>
                <mxCell id="13" value="buildOrder" style="shape=step;perimeter=stepPerimeter;whiteSpace=wrap;html=1;fixedSize=1;" vertex="1" parent="1">
                    <mxGeometry x="390" y="830" width="120" height="80" as="geometry"/>
                </mxCell>
                <mxCell id="14" value="addPizzaToOrder" style="shape=document;whiteSpace=wrap;html=1;boundedLbl=1;" vertex="1" parent="1">
                    <mxGeometry x="520" y="740" width="120" height="80" as="geometry"/>
                </mxCell>
                <mxCell id="15" value="addCustomerToOrder" style="shape=document;whiteSpace=wrap;html=1;boundedLbl=1;" vertex="1" parent="1">
                    <mxGeometry x="520" y="940" width="120" height="80" as="geometry"/>
                </mxCell>
                <mxCell id="17" value="&lt;div style=&quot;background-color: rgb(1 , 22 , 39) ; font-family: &amp;#34;jetbrains mono&amp;#34; , &amp;#34;droid sans mono&amp;#34; , monospace , monospace , &amp;#34;droid sans fallback&amp;#34; ; font-size: 16px ; line-height: 22px ; color: rgb(167 , 219 , 247)&quot;&gt;&lt;div&gt;emptyOrder&amp;nbsp;&lt;span style=&quot;color: #82aaff&quot;&gt;customer =&lt;/span&gt;&amp;nbsp;&lt;span style=&quot;color: #6bff81&quot;&gt;&quot;&lt;/span&gt;&lt;span style=&quot;color: #d3eed6&quot;&gt;no name&lt;/span&gt;&lt;span style=&quot;color: #6bff81&quot;&gt;&quot;&lt;/span&gt;&amp;nbsp;&lt;span style=&quot;color: #a4ceee&quot;&gt;pizzas&lt;/span&gt; &lt;span style=&quot;color: #00bff9&quot;&gt;=&lt;/span&gt; &lt;span style=&quot;color: #92b6f4&quot;&gt;[]&lt;/span&gt;&lt;/div&gt;&lt;/div&gt;" style="text;html=1;align=left;verticalAlign=middle;resizable=0;points=[];autosize=1;strokeColor=none;" vertex="1" parent="1">
                    <mxGeometry x="530" y="855" width="430" height="30" as="geometry"/>
                </mxCell>
                <mxCell id="18" value="Start With and empty Order" style="text;html=1;align=center;verticalAlign=middle;resizable=0;points=[];autosize=1;strokeColor=none;" vertex="1" parent="1">
                    <mxGeometry x="520" y="840" width="160" height="20" as="geometry"/>
                </mxCell>
                <mxCell id="19" value="Text" style="text;html=1;align=center;verticalAlign=middle;resizable=0;points=[];autosize=1;strokeColor=none;" vertex="1" parent="1">
                    <mxGeometry x="550" y="710" width="40" height="20" as="geometry"/>
                </mxCell>
            </root>
        </mxGraphModel>
    </diagram>
</mxfile>